<svg width="60" height="60" xmlns="http://www.w3.org/2000/svg">

 <g>
  <title>background</title>
  <rect fill="none" id="canvas_background" height="402" width="582" y="-1" x="-1"/>
 </g>
 <g>
  <title>Layer 1</title>
  <path fill="#ffd740" id="svg_1" d="m58.387,26.457a5.13,5.13 0 0 0 -3.691,-1.414c-1.824,0.05 -3.496,1.08 -4.376,2.66l-8.53,0.935c-2.914,0.193 -9.57,0.015 -9.636,-0.038l-0.008,-0.046c0.484,-0.887 2.04,-3.346 7.142,-8.532c4.165,-4.234 6.332,-5.532 8.243,-6.677l1.314,-0.81c0.515,0.153 1.05,0.223 1.595,0.21a5.13,5.13 0 0 0 4.982,-5.258a5.13,5.13 0 0 0 -5.258,-4.982a5.13,5.13 0 0 0 -4.983,5.257c0.013,0.46 0.088,0.918 0.226,1.363c-1.8,2.276 -5.217,5.776 -7.956,8.493c-2.79,2.767 -7.232,7.2 -9.186,8.64c-0.635,-0.248 -5.138,-6.486 -6.387,-8.955c-2.687,-5.3 -4.03,-7.574 -4.34,-8.84c0.496,-0.784 0.743,-1.68 0.718,-2.617a4.69,4.69 0 0 0 -4.809,-4.558c-1.25,0.034 -2.414,0.553 -3.275,1.46s-1.317,2.102 -1.282,3.354c0.066,2.464 2.033,4.44 4.457,4.554c0.675,0.69 2.948,3.215 5.836,8.534c2.33,4.293 3.59,8.854 3.503,9.315c-1.192,0.16 -4.29,0.91 -8.418,0.874c-4.035,-0.037 -5.558,-0.045 -6.134,-0.2c-0.443,-1.864 -2.166,-3.225 -4.12,-3.173a4.1,4.1 0 0 0 -2.883,1.286c-0.758,0.8 -1.16,1.846 -1.13,2.947s0.468,2.122 1.235,2.874c0.78,0.764 1.815,1.17 2.917,1.14c1.564,-0.042 3.15,-1.42 3.513,-2.313c0.022,-0.053 0.038,-0.1 0.05,-0.114c0.057,-0.01 0.17,-0.026 0.38,-0.032c0.376,-0.01 0.944,0.01 1.73,0.038l4.823,0.11c4.206,0.034 6.334,0.297 7.36,0.5c-0.958,1.34 -3.16,4.236 -7.254,8.778c-4.22,4.682 -6.282,5.79 -7.562,6.52c-0.386,-0.08 -0.78,-0.116 -1.176,-0.105a5.08,5.08 0 0 0 -3.576,1.596c-0.94,0.992 -1.437,2.29 -1.4,3.657a5.08,5.08 0 0 0 1.596,3.577c0.992,0.94 2.29,1.438 3.657,1.402s2.637,-0.603 3.578,-1.596a5.08,5.08 0 0 0 1.401,-3.657c-0.013,-0.495 -0.1,-0.986 -0.258,-1.463c0.583,-1.547 2.723,-5.06 7.173,-9.14l7.513,-7.044c0.082,-0.064 0.328,-0.228 0.523,-0.28a0.26,0.26 0 0 1 0.027,-0.002c0.38,-0.01 1.016,0.483 1.323,0.816c0.022,0.024 2.75,3.1 6.026,9.095c1.805,3.303 2.798,5.544 3.22,6.807a4.14,4.14 0 0 0 -1.42,3.247a4.18,4.18 0 0 0 4.281,4.062a4.18,4.18 0 0 0 4.058,-4.286c-0.03,-1.114 -0.49,-2.154 -1.3,-2.92a4.14,4.14 0 0 0 -2.844,-1.144c-0.76,-1.36 -2.362,-3.544 -3.894,-6.77c-3.15,-6.63 -4.248,-10.702 -4.16,-11.256c0.03,-0.13 0.04,-0.17 0.235,-0.255c0.42,-0.184 6.722,-0.598 10.166,-0.535c3.842,0.07 7.557,0.482 8.257,0.936c0.9,1.815 2.74,2.942 4.773,2.887a5.17,5.17 0 0 0 5.023,-5.301a5.13,5.13 0 0 0 -1.609,-3.61"/>
 </g>
</svg>
